<?xml version="1.0" encoding="UTF-8"?>
<svg id="Layer_2" data-name="Layer 2" xmlns="http://www.w3.org/2000/svg" viewBox="0 0 254.45 81.55">
  <defs>
    <style>
      .cls-1 {
        fill: #f5f1e8;
      }
    </style>
  </defs>
  <g id="Layer_1-2" data-name="Layer 1">
    <g>
      <path class="cls-1" d="M155.42,47.4c-3.63,5.44-8.75,9.78-15.09,11.67-9.42,2.8-20.06,1.35-27.87-4.88-3.42,2.79-7.43,4.62-11.76,5.53-6.04,1.27-12.28.84-18.02-1.45-7.17-2.94-12.95-8.54-16.12-15.62-1.71-3.83-2.5-7.89-2.56-12.1-.06-3.9.47-7.68,1.91-11.31,1.86-4.7,4.83-8.88,8.66-12.19,4.31-3.73,9.6-5.97,15.22-6.76,8.48-1.01,16.56.43,23.36,5.72,7.08-5.42,15.94-7.04,24.64-5.42,5.67,1.12,10.81,3.92,14.74,8.14,2.81,3.02,4.96,6.49,6.4,10.35,1.64,4.39,2.16,9.01,1.66,13.69-.56,5.25-2.23,10.24-5.16,14.62ZM99.98,56.59c3.57-.77,6.6-2.73,8.88-5.5-3.81-3.91-6.42-8.75-7.47-14.1-.83-4.21-.87-8.43-.26-12.66.49-2.93,1.43-5.57,2.87-8.14,1.23-2.2,2.54-4.23,4.22-6.18-2.45-2.79-5.12-4.8-8.63-6.06-6.75-2.18-14.68-.94-19.86,4.05-5.05,4.86-7.38,11.8-7.69,18.72-.18,4.02.21,7.99,1.36,11.86,1.27,4.25,3.32,8.17,6.33,11.41,2.82,3.04,6.3,5.33,10.31,6.43,3.25.9,6.59.88,9.93.16ZM132.64,57.1c2.77-.02,5.35-.48,7.81-1.59,2.85-1.29,5.23-3.25,7.12-5.75,2.16-2.85,3.65-6.06,4.54-9.55,2.21-8.64,1.01-17.85-3.32-25.64-1.38-2.48-3.09-4.69-5.17-6.58-3-2.74-6.63-4.39-10.64-4.9-2.96-.37-5.83-.14-8.67.78-2.26.73-4.24,1.95-5.91,3.62l-1.88,2.14c1.96,2.23,3.58,4.63,4.96,7.29,1.62,3.11,2.5,6.42,2.74,9.93.59,8.34-1.32,16.19-6.75,22.73,3.79,4.65,8.96,7.57,15.16,7.52ZM116.4,37.88l-2.2-9.87c1.67-.9,2.46-2.68,1.95-4.46-.45-1.59-1.95-2.78-3.73-2.69s-3.12,1.38-3.46,3.02.48,3.34,2.05,4.16l-2.16,9.83h7.55Z"/>
      <path class="cls-1" d="M1.13,58.18l2.13-.26c1-.12,1.78-.85,2.04-1.85.31-1.18.47-2.37.49-3.61l.18-9.17V14.71s-.16-7.23-.16-7.23c-.05-2.3-.25-4.43-2.52-5.1C1.5,1.86.28,2.23.01,1.51c-.07-.2.14-.68.41-.68h7.98c3.37,0,6.61-.13,9.98-.22l5.34-.15c3.74-.1,7.37.37,10.97,1.37,5.76,1.6,10.85,4.95,14.46,9.74,2.47,3.28,4.32,6.98,5.16,11.04,1.37,6.64.66,13.6-1.96,19.82-3.69,8.78-11.5,15.1-20.82,16.95-4.91.98-9.92.73-14.92.26-2.63-.25-5.12-.38-7.77-.36l-7.66.07c-.31,0-.57-.29-.59-.53-.02-.26.21-.58.53-.62ZM29.2,56.68c4.81-.65,9.19-2.83,12.3-6.57,2.24-2.69,3.76-5.77,4.7-9.17,2.47-8.94,1.45-18.7-3.68-26.52-2.36-3.6-5.5-6.45-9.28-8.47-5.7-3.05-12.56-3.42-18.84-2.24-.58.11-1.05.56-1.05,1.2l-.11,15.46.06,24.5.15,4.78c.04,1.15.17,2.28.47,3.37.26.98.86,1.78,1.76,2.24,3.53,1.82,9.51,1.97,13.52,1.43Z"/>
      <path class="cls-1" d="M177.5,35.77l.03,10.98.26,6.63c.03.83.21,1.65.44,2.42.33,1.1,1.18,1.82,2.29,2.06l2.89.32c.3.03.59.25.61.5.03.34-.23.65-.61.65l-10.31-.06-7.11.06c-.32,0-.62-.27-.64-.55-.03-.36.28-.57.64-.61l1.6-.18c1.12-.12,1.99-.95,2.25-2.06s.39-2.19.42-3.35l.32-12.05v-22.63s-.2-10.74-.2-10.74l-.25-2.06c-.15-1.26-1.1-2.18-2.31-2.58-1.78-.58-3.36-.18-3.36-.99,0-.32.28-.57.63-.56l6.89.07,8.87-.12,7.02-.04c2.19.16,4.28.55,6.3,1.39,4.86,2.01,7.87,6.49,8.41,11.69.59,7.32-3.27,13.94-8.94,18.49l7.09,10.42,6.12,8.19,3.74,4.04c1.88,1.77,4.19,2.85,6.79,3.06.32.03.62.25.65.53.02.25-.24.64-.54.63l-8.77-.03c-3.64-.01-6.9-3.13-9.07-5.91l-3.7-5.29-4.46-7.08-3.32-4.9c-.48-.71-1.29-1.24-2.21-1.24h-7.77c-.4,0-.69.53-.68.89ZM194.88,23.83c.66-2.73.72-5.46.42-8.25-.26-2.39-.96-4.58-2.11-6.65-1.88-3.37-5.15-5.39-9.02-5.63l-4.96.16c-.95.03-1.69.53-1.69,1.6l.03,24.71c0,.85,1.18,1.5,1.88,1.67,2.56.63,5.13.71,7.74.41,4.19-.49,6.79-4.09,7.73-8.02Z"/>
      <path class="cls-1" d="M237.65,59.17c-5.02,1.85-11.85,1.62-16.86-.18-.99-.36-1.9-.79-2.75-1.36-.45-.3-.55-.71-.53-1.23l.5-10.52c.01-.27.32-.55.52-.57.26-.02.61.25.64.55l.35,3.72c.27,2.9,2.96,5.59,5.75,6.79,3.12,1.34,6.61,1.53,9.84.48,2.85-.93,4.94-3.11,5.8-5.97.74-2.47.73-5.07-.08-7.53-1.24-3.78-4.15-6.21-7.2-8.56l-7.59-5.83c-1.82-1.4-3.35-2.99-4.73-4.81-2.16-2.83-3.22-6.13-3.07-9.71.19-4.72,2.57-9.07,6.48-11.71,2.4-1.62,5.11-2.44,8-2.67,2.5-.18,4.92-.05,7.39.39l5.11.92-.13,9.52c0,.25-.41.47-.6.4-.22-.07-.39-.33-.41-.61-.28-3.57-1.77-5.76-5.13-7.06-2.13-.83-4.39-.98-6.65-.64-3.85.59-6.96,2.99-7.74,6.9-.62,3.11.23,6.23,2.19,8.73,1.06,1.36,2.24,2.54,3.64,3.57l5.31,3.9,4.96,3.8c1.66,1.27,2.99,2.76,4.2,4.47,2.13,3.02,3.13,6.57,2.93,10.29-.17,3.06-1.05,5.95-2.68,8.52-1.78,2.81-4.32,4.84-7.45,5.99Z"/>
      <path class="cls-1" d="M220.93,81.38l-.91.02-3.86-6.02-.03,6.02h-.88s0-7.58,0-7.58c.32-.03.65-.03.96.01l3.79,5.93.02-5.95h.89s0,7.57,0,7.57Z"/>
      <path class="cls-1" d="M202.32,79.37c-.43,1.24-1.52,2.04-2.82,2.05h-2.74s-.01-7.63-.01-7.63h2.76c1.41.01,2.56,1.03,2.9,2.35.28,1.07.26,2.13-.09,3.23ZM201.48,76.3c-.26-.97-1.07-1.66-2.09-1.67h-1.76s0,6,0,6l1.87-.02c1.78-.02,2.52-2.27,1.97-4.31Z"/>
      <path class="cls-1" d="M242.77,81.45l-1.61-2.93h-1.82s0,2.9,0,2.9l-.88-.02v-7.61s3.19.04,3.19.04c1.32.01,2.12,1.1,2.07,2.34-.04,1.06-.57,1.93-1.67,2.22l1.68,3.01-.97.06ZM242.77,76.11c.07-.79-.48-1.45-1.23-1.47l-2.2-.04v3.12s2-.01,2-.01c.85,0,1.51-.69,1.44-1.61Z"/>
      <path class="cls-1" d="M155.05,81.42l-1.6-2.92h-1.79s0,2.9,0,2.9h-.87s0-7.62,0-7.62h3.23c1.23.21,2.09,1.14,1.98,2.38.05,1.06-.6,1.93-1.63,2.24l1.71,2.99-.99.03ZM155.05,76.12c.07-.86-.56-1.49-1.37-1.5h-2.02s0,3.12,0,3.12l2.02-.02c.85,0,1.46-.74,1.38-1.6Z"/>
      <path class="cls-1" d="M179.38,79.41c-.46,1.4-1.66,2.19-3.02,2.14s-2.47-.91-2.87-2.26-.36-2.92.4-4.19c.54-.91,1.5-1.38,2.47-1.4,1.04-.03,2.06.38,2.64,1.33.78,1.29.86,2.9.38,4.38ZM178.48,79.26c.42-1.06.38-2.25.02-3.28-.33-.93-1.11-1.45-2.02-1.46s-1.67.55-2.02,1.47c-.39,1.05-.37,2.26.03,3.31.34.88,1.11,1.43,1.99,1.42s1.64-.54,2-1.46Z"/>
      <path class="cls-1" d="M102.52,79.88c-.59,1.23-1.79,1.76-3.04,1.65-1.16-.1-2.16-.89-2.57-2.11s-.4-2.7.13-3.94c.46-1.09,1.47-1.71,2.54-1.78,1.16-.07,2.29.44,2.88,1.53.74,1.4.76,3.17.06,4.65ZM101.85,76.06c-.3-.93-1.05-1.49-1.96-1.53-.86-.04-1.67.45-2.03,1.32-.49,1.19-.46,2.58.12,3.73.38.77,1.13,1.16,1.93,1.14,1.93-.05,2.62-2.57,1.95-4.66Z"/>
      <path class="cls-1" d="M190,81.42l-1.64-2.91h-1.79s0,2.9,0,2.9h-.87s0-7.61,0-7.61l3.14.03c1.25.01,2.12,1.03,2.09,2.23.06,1.11-.55,2.05-1.67,2.34l1.71,3.01-.97.02ZM189.99,76.11c.07-.77-.48-1.46-1.27-1.47l-2.15-.03v3.13s1.95,0,1.95,0c.88,0,1.54-.7,1.47-1.62Z"/>
      <polygon class="cls-1" points="19.48 81.37 18.56 81.41 18.56 78.04 14.54 78.04 14.53 81.41 13.65 81.39 13.65 73.82 14.53 73.8 14.54 77.25 18.56 77.24 18.56 73.81 19.47 73.83 19.48 81.37"/>
      <polygon class="cls-1" points="30.58 77.97 27.04 77.97 27.04 80.63 31.17 80.63 31.17 81.44 26.16 81.43 26.16 73.78 31.17 73.79 31.19 74.61 27.04 74.61 27.04 77.17 30.58 77.17 30.58 77.97"/>
      <polygon class="cls-1" points="121.13 77.97 117.6 77.98 117.59 80.63 121.72 80.63 121.73 81.43 116.72 81.43 116.71 73.79 121.72 73.78 121.72 74.61 117.6 74.62 117.59 77.17 121.08 77.17 121.13 77.97"/>
      <polygon class="cls-1" points="61.21 77.96 57.66 77.98 57.66 80.63 61.75 80.64 61.72 81.44 56.77 81.43 56.77 73.78 61.77 73.79 61.78 74.61 57.66 74.61 57.66 77.18 61.16 77.17 61.21 77.96"/>
      <path class="cls-1" d="M50.44,81.38h-1.06s-2.62-3.6-2.62-3.6l-1,1.04-.03,2.6-.9-.03v-7.57s.9-.02.9-.02l.02,3.92,3.43-3.88c.36-.05.68-.06,1.14,0l-2.97,3.31,3.1,4.24Z"/>
      <path class="cls-1" d="M231.45,79.7h-3.45s-.6,1.71-.6,1.71l-.94-.02,2.72-7.51c.29-.1.68-.1,1.02-.04l2.74,7.54-.93.04-.57-1.72ZM231.15,78.88l-1.45-3.98-1.42,3.99h2.87Z"/>
      <path class="cls-1" d="M166.55,79.7h-3.42s-.6,1.73-.6,1.73l-.92-.03,2.69-7.5c.28-.14.66-.14,1.02-.05l2.76,7.55-.95.02-.57-1.72ZM166.24,78.88l-1.42-3.96-1.43,3.98,2.85-.03Z"/>
      <path class="cls-1" d="M133.64,81.35l-.96.07-2.02-3.19-1.94,3.13c-.28.06-.67.06-1.02.02l2.47-3.9-2.35-3.66c.35-.07.83-.07,1.09.07l1.77,2.86,1.87-2.98,1.01.04-2.37,3.67,2.45,3.85Z"/>
      <path class="cls-1" d="M73.16,73.86l-2.38,4.13-.03,3.41-.89.02v-3.36s-2.43-4.24-2.43-4.24h1.02s1.85,3.36,1.85,3.36l1.87-3.32c.27-.06.49-.07.99,0Z"/>
      <polygon class="cls-1" points="5.31 81.38 4.43 81.39 4.43 74.62 2.07 74.62 2.09 73.79 7.66 73.78 7.67 74.61 5.3 74.62 5.31 81.38"/>
      <polygon class="cls-1" points="142.57 81.38 141.69 81.39 141.69 74.62 139.32 74.62 139.35 73.79 144.9 73.79 144.92 74.61 142.57 74.61 142.57 81.38"/>
      <polygon class="cls-1" points="88.84 81.37 87.95 81.4 87.95 74.62 85.61 74.61 85.61 73.79 91.15 73.78 91.21 74.61 88.83 74.62 88.84 81.37"/>
      <path class="cls-1" d="M254.45,73.85l-2.42,4.23v3.34s-.89-.01-.89-.01v-3.37s-2.42-4.21-2.42-4.21h1.02s1.86,3.34,1.86,3.34l1.86-3.31c.28-.05.54-.05.99,0Z"/>
      <polygon class="cls-1" points="209.29 81.37 208.39 81.39 208.39 73.82 209.29 73.82 209.29 81.37"/>
    </g>
  </g>
</svg>