<?xml version="1.0" encoding="UTF-8"?>
<svg id="Layer_2" data-name="Layer 2" xmlns="http://www.w3.org/2000/svg" viewBox="0 0 255.67 81.95">
  <g id="Layer_1-2" data-name="Layer 1">
    <g>
      <path d="M156.17,47.63c-3.65,5.46-8.79,9.83-15.16,11.73-9.46,2.82-20.16,1.36-28.01-4.9-3.43,2.8-7.47,4.64-11.82,5.55-6.07,1.28-12.34.84-18.11-1.45-7.21-2.95-13.02-8.59-16.2-15.69-1.72-3.85-2.51-7.93-2.57-12.16-.06-3.92.47-7.71,1.92-11.37,1.87-4.72,4.86-8.92,8.7-12.25,4.33-3.75,9.64-6,15.29-6.79,8.52-1.02,16.64.44,23.47,5.75,7.11-5.45,16.01-7.08,24.76-5.45,5.7,1.12,10.86,3.93,14.81,8.18,2.82,3.03,4.98,6.52,6.43,10.4,1.65,4.41,2.17,9.05,1.67,13.75-.56,5.27-2.24,10.29-5.18,14.69ZM100.46,56.86c3.59-.78,6.63-2.75,8.93-5.53-3.83-3.93-6.45-8.79-7.5-14.17-.83-4.23-.88-8.48-.26-12.72.49-2.94,1.44-5.6,2.88-8.18,1.24-2.21,2.55-4.25,4.24-6.21-2.47-2.8-5.15-4.82-8.67-6.09-6.79-2.19-14.75-.94-19.96,4.07s-7.42,11.85-7.73,18.81c-.18,4.04.21,8.03,1.37,11.92,1.27,4.27,3.34,8.2,6.36,11.47,2.83,3.06,6.33,5.35,10.36,6.46,3.26.9,6.62.89,9.98.16ZM133.28,57.38c2.79-.02,5.38-.48,7.85-1.6,2.87-1.29,5.26-3.26,7.16-5.78,2.17-2.86,3.67-6.09,4.56-9.59,2.22-8.68,1.02-17.93-3.34-25.77-1.38-2.49-3.11-4.71-5.19-6.62-3.01-2.75-6.66-4.41-10.7-4.92-2.97-.38-5.86-.14-8.72.78-2.27.73-4.26,1.95-5.94,3.64l-1.89,2.15c1.97,2.24,3.6,4.66,4.99,7.33,1.63,3.13,2.51,6.45,2.76,9.98.59,8.38-1.32,16.27-6.78,22.84,3.8,4.67,9,7.6,15.24,7.55ZM116.96,38.06l-2.21-9.92c1.68-.9,2.47-2.69,1.96-4.48-.45-1.6-1.96-2.79-3.75-2.71s-3.13,1.38-3.48,3.04.48,3.35,2.06,4.18l-2.17,9.88h7.59Z"/>
      <path d="M1.14,58.46l2.14-.26c1-.12,1.79-.86,2.05-1.86.31-1.18.47-2.38.5-3.62l.18-9.22V14.78s-.16-7.26-.16-7.26c-.05-2.31-.25-4.45-2.53-5.12C1.5,1.87.28,2.24.01,1.52c-.07-.2.14-.69.42-.69h8.02c3.39,0,6.65-.13,10.03-.23l5.37-.15c3.75-.1,7.4.37,11.02,1.37,5.79,1.61,10.9,4.98,14.52,9.79,2.48,3.29,4.35,7.02,5.18,11.09,1.38,6.68.66,13.66-1.97,19.91-3.71,8.82-11.56,15.17-20.92,17.03-4.93.98-9.97.73-14.99.26-2.64-.25-5.15-.38-7.8-.36l-7.7.07c-.31,0-.57-.29-.59-.53-.02-.26.21-.58.53-.62ZM29.34,56.95c4.84-.65,9.23-2.84,12.36-6.6,2.25-2.7,3.78-5.8,4.72-9.21,2.48-8.98,1.45-18.79-3.69-26.65-2.37-3.61-5.52-6.48-9.33-8.52-5.73-3.07-12.62-3.43-18.93-2.26-.58.11-1.05.56-1.06,1.2l-.11,15.53.06,24.62.15,4.8c.04,1.15.17,2.29.47,3.39.27.99.87,1.79,1.77,2.25,3.55,1.83,9.56,1.98,13.58,1.44Z"/>
      <path d="M178.36,35.94l.03,11.04.26,6.66c.03.83.21,1.66.44,2.43.33,1.1,1.18,1.83,2.3,2.07l2.9.33c.31.03.59.25.61.5.03.34-.23.65-.62.65l-10.36-.06-7.15.06c-.32,0-.63-.27-.65-.55-.03-.36.28-.58.65-.62l1.61-.18c1.12-.12,2-.95,2.26-2.07s.4-2.2.43-3.36l.32-12.1v-22.74s-.2-10.8-.2-10.8l-.25-2.07c-.15-1.26-1.1-2.19-2.32-2.59-1.79-.59-3.38-.18-3.37-1,0-.32.29-.57.63-.57l6.92.07,8.92-.12,7.05-.04c2.2.16,4.3.55,6.33,1.39,4.89,2.02,7.91,6.52,8.45,11.75.59,7.35-3.29,14.01-8.98,18.58l7.12,10.47,6.15,8.23,3.75,4.06c1.89,1.78,4.21,2.87,6.82,3.08.32.03.63.26.65.53.02.25-.24.64-.54.64l-8.81-.03c-3.65-.01-6.94-3.14-9.12-5.94l-3.71-5.32-4.48-7.11-3.33-4.92c-.48-.71-1.3-1.24-2.22-1.24h-7.81c-.4,0-.69.53-.69.9ZM195.82,23.94c.66-2.74.72-5.49.42-8.29-.26-2.41-.97-4.6-2.13-6.68-1.89-3.39-5.18-5.42-9.06-5.66l-4.99.16c-.96.03-1.7.54-1.7,1.61l.03,24.83c0,.86,1.18,1.51,1.89,1.68,2.57.63,5.16.71,7.78.41,4.21-.49,6.82-4.11,7.77-8.06Z"/>
      <path d="M238.8,59.46c-5.04,1.86-11.91,1.63-16.94-.18-1-.36-1.9-.79-2.76-1.36-.45-.31-.55-.71-.53-1.23l.5-10.57c.01-.27.33-.56.52-.57.26-.02.61.25.64.56l.35,3.74c.28,2.92,2.97,5.62,5.78,6.83,3.13,1.35,6.64,1.54,9.89.48,2.87-.93,4.97-3.12,5.83-6,.74-2.48.73-5.1-.08-7.57-1.25-3.8-4.17-6.24-7.24-8.6l-7.63-5.85c-1.83-1.41-3.36-3.01-4.75-4.83-2.17-2.84-3.23-6.16-3.09-9.76.19-4.74,2.58-9.11,6.51-11.77,2.41-1.63,5.14-2.45,8.04-2.68,2.51-.18,4.94-.05,7.43.39l5.14.92-.13,9.56c0,.25-.41.47-.61.4-.22-.07-.39-.33-.41-.61-.28-3.59-1.78-5.79-5.16-7.1-2.14-.83-4.41-.99-6.69-.64-3.87.59-7,3-7.78,6.94-.62,3.13.23,6.26,2.2,8.77,1.07,1.37,2.25,2.56,3.66,3.59l5.33,3.92,4.99,3.82c1.67,1.27,3,2.77,4.22,4.49,2.14,3.03,3.14,6.6,2.94,10.34-.17,3.08-1.06,5.98-2.69,8.57-1.79,2.82-4.34,4.86-7.48,6.02Z"/>
      <path d="M222,81.77l-.91.02-3.88-6.05-.03,6.05h-.88s0-7.62,0-7.62c.32-.03.65-.03.96.01l3.81,5.95.02-5.98h.9s0,7.61,0,7.61Z"/>
      <path d="M203.29,79.75c-.44,1.25-1.53,2.05-2.83,2.06h-2.76s-.01-7.66-.01-7.66h2.77c1.42.02,2.58,1.03,2.92,2.36.28,1.08.26,2.14-.09,3.25ZM202.45,76.66c-.26-.98-1.08-1.67-2.1-1.68h-1.77s0,6.03,0,6.03l1.88-.02c1.79-.02,2.53-2.28,1.98-4.33Z"/>
      <path d="M243.94,81.84l-1.62-2.94h-1.83s0,2.91,0,2.91l-.88-.02v-7.65s3.21.04,3.21.04c1.32.01,2.13,1.11,2.08,2.35-.04,1.06-.57,1.94-1.67,2.23l1.69,3.02-.97.06ZM243.94,76.47c.07-.79-.48-1.46-1.24-1.47l-2.21-.04v3.14s2.01-.01,2.01-.01c.86,0,1.52-.69,1.45-1.61Z"/>
      <path d="M155.79,81.81l-1.61-2.93h-1.8s0,2.92,0,2.92h-.88s0-7.66,0-7.66h3.24c1.24.21,2.1,1.14,1.99,2.39.05,1.06-.6,1.94-1.64,2.25l1.71,3.01-1,.03ZM155.79,76.48c.07-.86-.56-1.5-1.38-1.5h-2.03s0,3.13,0,3.13l2.03-.02c.85,0,1.46-.75,1.39-1.61Z"/>
      <path d="M180.25,79.79c-.46,1.41-1.67,2.2-3.03,2.16s-2.48-.91-2.88-2.27-.36-2.93.4-4.21c.54-.91,1.51-1.38,2.48-1.41,1.05-.03,2.07.38,2.65,1.34.79,1.3.87,2.92.38,4.4ZM179.33,79.64c.42-1.06.39-2.26.02-3.29-.33-.93-1.12-1.46-2.03-1.47s-1.68.55-2.03,1.48c-.39,1.05-.38,2.27.03,3.33.34.89,1.11,1.43,2,1.43s1.65-.54,2.01-1.47Z"/>
      <path d="M103.01,80.27c-.59,1.23-1.8,1.76-3.05,1.66-1.16-.1-2.17-.9-2.58-2.12s-.4-2.71.13-3.96c.47-1.1,1.47-1.72,2.56-1.79,1.17-.07,2.3.44,2.89,1.54.75,1.41.77,3.19.06,4.67ZM102.34,76.42c-.3-.94-1.05-1.49-1.97-1.53-.87-.04-1.68.45-2.04,1.33-.49,1.19-.46,2.59.12,3.75.39.77,1.14,1.16,1.93,1.14,1.94-.05,2.63-2.58,1.96-4.69Z"/>
      <path d="M190.91,81.81l-1.64-2.93h-1.8s0,2.91,0,2.91h-.87s0-7.65,0-7.65l3.15.03c1.26.01,2.13,1.04,2.1,2.24.06,1.11-.55,2.06-1.68,2.35l1.71,3.02-.97.02ZM190.9,76.47c.07-.77-.49-1.46-1.27-1.48l-2.16-.03v3.14s1.96,0,1.96,0c.89,0,1.54-.7,1.48-1.63Z"/>
      <polygon points="19.57 81.76 18.65 81.8 18.64 78.41 14.61 78.42 14.6 81.81 13.72 81.78 13.71 74.18 14.6 74.15 14.61 77.62 18.65 77.61 18.65 74.17 19.57 74.18 19.57 81.76"/>
      <polygon points="30.73 78.35 27.17 78.35 27.17 81.02 31.32 81.02 31.32 81.83 26.29 81.82 26.29 74.14 31.32 74.15 31.34 74.97 27.17 74.97 27.17 77.54 30.73 77.54 30.73 78.35"/>
      <polygon points="121.71 78.35 118.16 78.35 118.16 81.02 122.31 81.02 122.31 81.82 117.28 81.82 117.27 74.15 122.31 74.13 122.31 74.97 118.16 74.98 118.16 77.54 121.66 77.54 121.71 78.35"/>
      <polygon points="61.5 78.34 57.94 78.35 57.94 81.02 62.05 81.02 62.02 81.83 57.04 81.82 57.04 74.14 62.06 74.14 62.07 74.97 57.94 74.97 57.94 77.55 61.45 77.54 61.5 78.34"/>
      <path d="M50.68,81.78h-1.07s-2.64-3.62-2.64-3.62l-1.01,1.05-.03,2.61-.9-.03v-7.61s.91-.02.91-.02l.02,3.93,3.44-3.9c.36-.05.68-.06,1.14,0l-2.99,3.32,3.12,4.27Z"/>
      <path d="M232.56,80.08h-3.46s-.6,1.72-.6,1.72l-.94-.02,2.74-7.55c.3-.1.69-.1,1.03-.04l2.76,7.58-.94.04-.58-1.73ZM232.26,79.26l-1.46-4-1.43,4.01h2.89Z"/>
      <path d="M167.35,80.08h-3.44s-.6,1.73-.6,1.73l-.92-.03,2.7-7.53c.28-.14.66-.14,1.02-.05l2.77,7.59-.96.02-.57-1.73ZM167.04,79.25l-1.43-3.97-1.44,4,2.87-.03Z"/>
      <path d="M134.29,81.74l-.96.07-2.03-3.2-1.95,3.15c-.28.06-.67.06-1.03.02l2.48-3.92-2.36-3.67c.36-.07.83-.07,1.1.07l1.77,2.88,1.88-2.99,1.01.04-2.38,3.69,2.46,3.87Z"/>
      <path d="M73.51,74.21l-2.39,4.15-.03,3.43-.89.02v-3.37s-2.44-4.26-2.44-4.26h1.02s1.86,3.37,1.86,3.37l1.88-3.34c.27-.06.49-.07,1,0Z"/>
      <polygon points="5.33 81.77 4.45 81.78 4.45 74.97 2.08 74.97 2.1 74.15 7.7 74.13 7.71 74.97 5.33 74.98 5.33 81.77"/>
      <polygon points="143.26 81.77 142.38 81.78 142.37 74.98 139.99 74.97 140.02 74.14 145.6 74.14 145.62 74.97 143.26 74.97 143.26 81.77"/>
      <polygon points="89.26 81.76 88.38 81.79 88.38 74.97 86.02 74.97 86.02 74.15 91.59 74.13 91.64 74.97 89.25 74.97 89.26 81.76"/>
      <path d="M255.67,74.2l-2.43,4.25v3.35s-.89-.01-.89-.01v-3.39s-2.43-4.23-2.43-4.23h1.02s1.87,3.35,1.87,3.35l1.86-3.33c.28-.05.55-.05.99,0Z"/>
      <polygon points="210.3 81.77 209.39 81.78 209.39 74.18 210.3 74.17 210.3 81.77"/>
    </g>
  </g>
</svg>